<mxfile host="app.diagrams.net" modified="2023-02-08T13:48:16.115Z" agent="5.0 (Windows NT 10.0; Win64; x64) AppleWebKit/537.36 (KHTML, like Gecko) Chrome/109.0.0.0 Safari/537.36" etag="omtrdr5HZY_7J81Qiqb-" version="20.8.15" type="github">
  <diagram name="第 1 页" id="8yKQ9P1fdUPXftmwA2rd">
    <mxGraphModel dx="1050" dy="209" grid="1" gridSize="10" guides="1" tooltips="1" connect="1" arrows="1" fold="1" page="1" pageScale="1" pageWidth="620" pageHeight="340" math="0" shadow="0">
      <root>
        <mxCell id="0" />
        <mxCell id="1" parent="0" />
        <mxCell id="prbzHfDhQ1h4LxpTt1DE-4" value="&lt;font face=&quot;Lucida Console&quot;&gt;Aggregating &lt;br&gt;items as a basket&lt;/font&gt;" style="rounded=1;whiteSpace=wrap;html=1;fontSize=14;fillColor=#d5e8d4;strokeColor=#82b366;" vertex="1" parent="1">
          <mxGeometry x="17" y="737" width="157" height="40" as="geometry" />
        </mxCell>
        <mxCell id="prbzHfDhQ1h4LxpTt1DE-5" value="&lt;p style=&quot;line-height: 0%;&quot;&gt;&lt;font face=&quot;Comic Sans MS&quot; style=&quot;font-size: 11px;&quot;&gt;Basket&amp;nbsp;&lt;/font&gt;&lt;span style=&quot;font-size: 11px; font-family: &amp;quot;Comic Sans MS&amp;quot;; background-color: initial;&quot;&gt;sequence&lt;/span&gt;&lt;/p&gt;" style="text;strokeColor=none;align=center;fillColor=none;html=1;verticalAlign=middle;whiteSpace=wrap;rounded=0;dashed=1;" vertex="1" parent="1">
          <mxGeometry x="47.5" y="969" width="100" height="30" as="geometry" />
        </mxCell>
        <mxCell id="prbzHfDhQ1h4LxpTt1DE-36" value="" style="curved=1;endArrow=classic;html=1;rounded=0;fontFamily=Comic Sans MS;fontSize=14;entryX=0.5;entryY=1;entryDx=0;entryDy=0;exitX=-0.266;exitY=-0.311;exitDx=0;exitDy=0;exitPerimeter=0;" edge="1" parent="1" target="prbzHfDhQ1h4LxpTt1DE-4">
          <mxGeometry width="50" height="50" relative="1" as="geometry">
            <mxPoint x="171.98800000000006" y="844.402" as="sourcePoint" />
            <mxPoint x="102" y="783" as="targetPoint" />
            <Array as="points">
              <mxPoint x="114" y="823" />
            </Array>
          </mxGeometry>
        </mxCell>
        <mxCell id="prbzHfDhQ1h4LxpTt1DE-37" value="" style="curved=1;endArrow=classic;html=1;rounded=0;fontFamily=Comic Sans MS;fontSize=14;exitX=0.5;exitY=0;exitDx=0;exitDy=0;" edge="1" parent="1" source="prbzHfDhQ1h4LxpTt1DE-4">
          <mxGeometry width="50" height="50" relative="1" as="geometry">
            <mxPoint x="84" y="693" as="sourcePoint" />
            <mxPoint x="170" y="670" as="targetPoint" />
            <Array as="points">
              <mxPoint x="110" y="680" />
            </Array>
          </mxGeometry>
        </mxCell>
        <mxCell id="prbzHfDhQ1h4LxpTt1DE-47" value="&lt;p style=&quot;line-height: 0%;&quot;&gt;&lt;font face=&quot;Comic Sans MS&quot;&gt;&lt;span style=&quot;font-size: 11px;&quot;&gt;...&lt;/span&gt;&lt;/font&gt;&lt;/p&gt;" style="text;strokeColor=none;align=center;fillColor=none;html=1;verticalAlign=middle;whiteSpace=wrap;rounded=0;dashed=1;" vertex="1" parent="1">
          <mxGeometry x="416" y="632" width="30" height="30" as="geometry" />
        </mxCell>
        <mxCell id="prbzHfDhQ1h4LxpTt1DE-8" value="" style="rounded=1;whiteSpace=wrap;html=1;dashed=1;direction=south;container=0;" vertex="1" parent="1">
          <mxGeometry x="181" y="969" width="110" height="34" as="geometry" />
        </mxCell>
        <mxCell id="prbzHfDhQ1h4LxpTt1DE-9" value="" style="ellipse;whiteSpace=wrap;html=1;aspect=fixed;fillColor=#ffe6cc;strokeColor=#d79b00;container=0;" vertex="1" parent="1">
          <mxGeometry x="189" y="975.5" width="20" height="20" as="geometry" />
        </mxCell>
        <mxCell id="prbzHfDhQ1h4LxpTt1DE-26" value="" style="triangle;whiteSpace=wrap;html=1;fontFamily=Comic Sans MS;fontSize=14;direction=north;fillColor=#fff2cc;strokeColor=#d6b656;container=0;" vertex="1" parent="1">
          <mxGeometry x="226.5" y="974.5" width="20" height="20" as="geometry" />
        </mxCell>
        <mxCell id="prbzHfDhQ1h4LxpTt1DE-32" value="" style="rhombus;whiteSpace=wrap;html=1;fontFamily=Comic Sans MS;fontSize=14;fillColor=#f8cecc;strokeColor=#b85450;container=0;" vertex="1" parent="1">
          <mxGeometry x="265" y="974.5" width="20" height="20" as="geometry" />
        </mxCell>
        <mxCell id="prbzHfDhQ1h4LxpTt1DE-60" value="&lt;p style=&quot;line-height: 0%;&quot;&gt;&lt;font face=&quot;Comic Sans MS&quot;&gt;&lt;span style=&quot;font-size: 11px;&quot;&gt;...&lt;/span&gt;&lt;/font&gt;&lt;/p&gt;" style="text;strokeColor=none;align=center;fillColor=none;html=1;verticalAlign=middle;whiteSpace=wrap;rounded=0;dashed=1;" vertex="1" parent="1">
          <mxGeometry x="416" y="964.5" width="30" height="30" as="geometry" />
        </mxCell>
        <mxCell id="prbzHfDhQ1h4LxpTt1DE-73" value="&lt;font face=&quot;Lucida Console&quot; style=&quot;font-size: 14px;&quot;&gt;Item-level Encoder&lt;/font&gt;" style="rounded=0;whiteSpace=wrap;html=1;fillColor=#dae8fc;strokeColor=#6c8ebf;" vertex="1" parent="1">
          <mxGeometry x="181" y="779" width="375" height="44" as="geometry" />
        </mxCell>
        <mxCell id="prbzHfDhQ1h4LxpTt1DE-76" value="&lt;p style=&quot;line-height: 0%;&quot;&gt;&lt;font face=&quot;Comic Sans MS&quot;&gt;&lt;span style=&quot;font-size: 11px;&quot;&gt;Item Emb.&lt;/span&gt;&lt;/font&gt;&lt;/p&gt;" style="text;strokeColor=none;align=center;fillColor=none;html=1;verticalAlign=middle;whiteSpace=wrap;rounded=0;dashed=1;" vertex="1" parent="1">
          <mxGeometry x="77.25" y="843" width="76.5" height="30" as="geometry" />
        </mxCell>
        <mxCell id="prbzHfDhQ1h4LxpTt1DE-78" value="&lt;p style=&quot;line-height: 0%;&quot;&gt;&lt;font face=&quot;Comic Sans MS&quot;&gt;&lt;span style=&quot;font-size: 11px;&quot;&gt;Whole-basket&amp;nbsp; Emb.&lt;/span&gt;&lt;/font&gt;&lt;/p&gt;" style="text;strokeColor=none;align=center;fillColor=none;html=1;verticalAlign=middle;whiteSpace=wrap;rounded=0;dashed=1;" vertex="1" parent="1">
          <mxGeometry x="33" y="928" width="114.5" height="30" as="geometry" />
        </mxCell>
        <mxCell id="prbzHfDhQ1h4LxpTt1DE-79" value="&lt;p style=&quot;line-height: 0%;&quot;&gt;&lt;font face=&quot;Comic Sans MS&quot;&gt;&lt;span style=&quot;font-size: 11px;&quot;&gt;Position Emb.&lt;/span&gt;&lt;/font&gt;&lt;/p&gt;" style="text;strokeColor=none;align=center;fillColor=none;html=1;verticalAlign=middle;whiteSpace=wrap;rounded=0;dashed=1;" vertex="1" parent="1">
          <mxGeometry x="72.25" y="887" width="76.5" height="30" as="geometry" />
        </mxCell>
        <mxCell id="prbzHfDhQ1h4LxpTt1DE-113" value="+" style="text;strokeColor=none;align=center;fillColor=none;html=1;verticalAlign=middle;whiteSpace=wrap;rounded=0;fontSize=14;fontFamily=Lucida Console;" vertex="1" parent="1">
          <mxGeometry x="193" y="875" width="10" height="10" as="geometry" />
        </mxCell>
        <mxCell id="prbzHfDhQ1h4LxpTt1DE-114" value="+" style="text;strokeColor=none;align=center;fillColor=none;html=1;verticalAlign=middle;whiteSpace=wrap;rounded=0;fontSize=14;fontFamily=Lucida Console;" vertex="1" parent="1">
          <mxGeometry x="234" y="875" width="10" height="10" as="geometry" />
        </mxCell>
        <mxCell id="prbzHfDhQ1h4LxpTt1DE-115" value="+" style="text;strokeColor=none;align=center;fillColor=none;html=1;verticalAlign=middle;whiteSpace=wrap;rounded=0;fontSize=14;fontFamily=Lucida Console;" vertex="1" parent="1">
          <mxGeometry x="273" y="875" width="10" height="10" as="geometry" />
        </mxCell>
        <mxCell id="prbzHfDhQ1h4LxpTt1DE-122" value="&lt;font style=&quot;font-size: 11px;&quot;&gt;&amp;lt;p1&amp;gt;&lt;/font&gt;" style="rounded=0;whiteSpace=wrap;html=1;fontFamily=Lucida Console;fontSize=14;fillColor=#d0cee2;strokeColor=#56517e;" vertex="1" parent="1">
          <mxGeometry x="182" y="892" width="32" height="18" as="geometry" />
        </mxCell>
        <mxCell id="prbzHfDhQ1h4LxpTt1DE-123" value="&lt;font style=&quot;font-size: 11px;&quot;&gt;&amp;lt;p2&amp;gt;&lt;/font&gt;" style="rounded=0;whiteSpace=wrap;html=1;fontFamily=Lucida Console;fontSize=14;fillColor=#d0cee2;strokeColor=#56517e;" vertex="1" parent="1">
          <mxGeometry x="220.5" y="892" width="32" height="18" as="geometry" />
        </mxCell>
        <mxCell id="prbzHfDhQ1h4LxpTt1DE-124" value="&lt;font style=&quot;font-size: 11px;&quot;&gt;&amp;lt;p3&amp;gt;&lt;/font&gt;" style="rounded=0;whiteSpace=wrap;html=1;fontFamily=Lucida Console;fontSize=14;fillColor=#d0cee2;strokeColor=#56517e;" vertex="1" parent="1">
          <mxGeometry x="259.5" y="892" width="32" height="18" as="geometry" />
        </mxCell>
        <mxCell id="prbzHfDhQ1h4LxpTt1DE-126" value="&lt;font style=&quot;font-size: 11px;&quot;&gt;&amp;lt;p4&amp;gt;&lt;/font&gt;" style="rounded=0;whiteSpace=wrap;html=1;fontFamily=Lucida Console;fontSize=14;fillColor=#d0cee2;strokeColor=#56517e;" vertex="1" parent="1">
          <mxGeometry x="301.5" y="892" width="32" height="18" as="geometry" />
        </mxCell>
        <mxCell id="prbzHfDhQ1h4LxpTt1DE-127" value="&lt;font style=&quot;font-size: 11px;&quot;&gt;&amp;lt;p5&amp;gt;&lt;/font&gt;" style="rounded=0;whiteSpace=wrap;html=1;fontFamily=Lucida Console;fontSize=14;fillColor=#d0cee2;strokeColor=#56517e;" vertex="1" parent="1">
          <mxGeometry x="341.5" y="892" width="32" height="18" as="geometry" />
        </mxCell>
        <mxCell id="prbzHfDhQ1h4LxpTt1DE-128" value="&lt;font style=&quot;font-size: 11px;&quot;&gt;&amp;lt;p6&amp;gt;&lt;/font&gt;" style="rounded=0;whiteSpace=wrap;html=1;fontFamily=Lucida Console;fontSize=14;fillColor=#d0cee2;strokeColor=#56517e;" vertex="1" parent="1">
          <mxGeometry x="382.5" y="892" width="32" height="18" as="geometry" />
        </mxCell>
        <mxCell id="prbzHfDhQ1h4LxpTt1DE-129" value="" style="rounded=0;whiteSpace=wrap;html=1;fontFamily=Lucida Console;fontSize=14;fillColor=#d0cee2;strokeColor=#56517e;" vertex="1" parent="1">
          <mxGeometry x="446" y="892" width="32" height="18" as="geometry" />
        </mxCell>
        <mxCell id="prbzHfDhQ1h4LxpTt1DE-130" value="" style="rounded=0;whiteSpace=wrap;html=1;fontFamily=Lucida Console;fontSize=14;fillColor=#d0cee2;strokeColor=#56517e;" vertex="1" parent="1">
          <mxGeometry x="485.5" y="892" width="32" height="18" as="geometry" />
        </mxCell>
        <mxCell id="prbzHfDhQ1h4LxpTt1DE-131" value="" style="rounded=0;whiteSpace=wrap;html=1;fontFamily=Lucida Console;fontSize=14;fillColor=#d0cee2;strokeColor=#56517e;" vertex="1" parent="1">
          <mxGeometry x="526.5" y="892" width="32" height="18" as="geometry" />
        </mxCell>
        <mxCell id="prbzHfDhQ1h4LxpTt1DE-132" value="&lt;p style=&quot;line-height: 0%;&quot;&gt;&lt;font face=&quot;Comic Sans MS&quot;&gt;&lt;span style=&quot;font-size: 11px;&quot;&gt;...&lt;/span&gt;&lt;/font&gt;&lt;/p&gt;" style="text;strokeColor=none;align=center;fillColor=none;html=1;verticalAlign=middle;whiteSpace=wrap;rounded=0;dashed=1;" vertex="1" parent="1">
          <mxGeometry x="415" y="880" width="30" height="30" as="geometry" />
        </mxCell>
        <mxCell id="prbzHfDhQ1h4LxpTt1DE-153" value="" style="group;fillColor=#d5e8d4;strokeColor=#82b366;" vertex="1" connectable="0" parent="1">
          <mxGeometry x="221" y="850" width="32" height="18" as="geometry" />
        </mxCell>
        <mxCell id="prbzHfDhQ1h4LxpTt1DE-154" value="" style="rounded=0;whiteSpace=wrap;html=1;fontFamily=Comic Sans MS;fontSize=11;fillColor=#fff2cc;strokeColor=#d6b656;gradientColor=#ffd966;" vertex="1" parent="prbzHfDhQ1h4LxpTt1DE-153">
          <mxGeometry width="32" height="18" as="geometry" />
        </mxCell>
        <mxCell id="prbzHfDhQ1h4LxpTt1DE-155" value="" style="endArrow=none;html=1;rounded=0;fontFamily=Comic Sans MS;fontSize=11;entryX=0.5;entryY=0;entryDx=0;entryDy=0;exitX=0.5;exitY=1;exitDx=0;exitDy=0;fillColor=#fff2cc;strokeColor=#d6b656;gradientColor=#ffd966;" edge="1" parent="prbzHfDhQ1h4LxpTt1DE-153" source="prbzHfDhQ1h4LxpTt1DE-154" target="prbzHfDhQ1h4LxpTt1DE-154">
          <mxGeometry width="50" height="50" relative="1" as="geometry">
            <mxPoint x="-40" y="81" as="sourcePoint" />
            <mxPoint y="36" as="targetPoint" />
          </mxGeometry>
        </mxCell>
        <mxCell id="prbzHfDhQ1h4LxpTt1DE-156" value="" style="group;fillColor=#d5e8d4;strokeColor=#82b366;" vertex="1" connectable="0" parent="1">
          <mxGeometry x="260" y="850" width="32" height="18" as="geometry" />
        </mxCell>
        <mxCell id="prbzHfDhQ1h4LxpTt1DE-157" value="" style="rounded=0;whiteSpace=wrap;html=1;fontFamily=Comic Sans MS;fontSize=11;fillColor=#fff2cc;strokeColor=#d6b656;gradientColor=#ffd966;" vertex="1" parent="prbzHfDhQ1h4LxpTt1DE-156">
          <mxGeometry width="32" height="18" as="geometry" />
        </mxCell>
        <mxCell id="prbzHfDhQ1h4LxpTt1DE-158" value="" style="endArrow=none;html=1;rounded=0;fontFamily=Comic Sans MS;fontSize=11;entryX=0.5;entryY=0;entryDx=0;entryDy=0;exitX=0.5;exitY=1;exitDx=0;exitDy=0;fillColor=#fff2cc;strokeColor=#d6b656;gradientColor=#ffd966;" edge="1" parent="prbzHfDhQ1h4LxpTt1DE-156" source="prbzHfDhQ1h4LxpTt1DE-157" target="prbzHfDhQ1h4LxpTt1DE-157">
          <mxGeometry width="50" height="50" relative="1" as="geometry">
            <mxPoint x="-40" y="81" as="sourcePoint" />
            <mxPoint y="36" as="targetPoint" />
          </mxGeometry>
        </mxCell>
        <mxCell id="prbzHfDhQ1h4LxpTt1DE-159" value="+" style="text;strokeColor=none;align=center;fillColor=none;html=1;verticalAlign=middle;whiteSpace=wrap;rounded=0;fontSize=14;fontFamily=Lucida Console;" vertex="1" parent="1">
          <mxGeometry x="314" y="875" width="10" height="10" as="geometry" />
        </mxCell>
        <mxCell id="prbzHfDhQ1h4LxpTt1DE-160" value="+" style="text;strokeColor=none;align=center;fillColor=none;html=1;verticalAlign=middle;whiteSpace=wrap;rounded=0;fontSize=14;fontFamily=Lucida Console;" vertex="1" parent="1">
          <mxGeometry x="355" y="875" width="10" height="10" as="geometry" />
        </mxCell>
        <mxCell id="prbzHfDhQ1h4LxpTt1DE-161" value="+" style="text;strokeColor=none;align=center;fillColor=none;html=1;verticalAlign=middle;whiteSpace=wrap;rounded=0;fontSize=14;fontFamily=Lucida Console;" vertex="1" parent="1">
          <mxGeometry x="394" y="875" width="10" height="10" as="geometry" />
        </mxCell>
        <mxCell id="prbzHfDhQ1h4LxpTt1DE-162" value="" style="group;fillColor=#d5e8d4;strokeColor=#82b366;" vertex="1" connectable="0" parent="1">
          <mxGeometry x="301.5" y="850" width="32" height="18" as="geometry" />
        </mxCell>
        <mxCell id="prbzHfDhQ1h4LxpTt1DE-163" value="" style="rounded=0;whiteSpace=wrap;html=1;fontFamily=Comic Sans MS;fontSize=11;fillColor=#fff2cc;strokeColor=#d6b656;gradientColor=#ffd966;" vertex="1" parent="prbzHfDhQ1h4LxpTt1DE-162">
          <mxGeometry width="32" height="18" as="geometry" />
        </mxCell>
        <mxCell id="prbzHfDhQ1h4LxpTt1DE-164" value="" style="endArrow=none;html=1;rounded=0;fontFamily=Comic Sans MS;fontSize=11;entryX=0.5;entryY=0;entryDx=0;entryDy=0;exitX=0.5;exitY=1;exitDx=0;exitDy=0;fillColor=#fff2cc;strokeColor=#d6b656;gradientColor=#ffd966;" edge="1" parent="prbzHfDhQ1h4LxpTt1DE-162" source="prbzHfDhQ1h4LxpTt1DE-163" target="prbzHfDhQ1h4LxpTt1DE-163">
          <mxGeometry width="50" height="50" relative="1" as="geometry">
            <mxPoint x="-40" y="81" as="sourcePoint" />
            <mxPoint y="36" as="targetPoint" />
          </mxGeometry>
        </mxCell>
        <mxCell id="prbzHfDhQ1h4LxpTt1DE-165" value="" style="group;fillColor=#d5e8d4;strokeColor=#82b366;" vertex="1" connectable="0" parent="1">
          <mxGeometry x="342" y="850" width="32" height="18" as="geometry" />
        </mxCell>
        <mxCell id="prbzHfDhQ1h4LxpTt1DE-166" value="" style="rounded=0;whiteSpace=wrap;html=1;fontFamily=Comic Sans MS;fontSize=11;fillColor=#fff2cc;strokeColor=#d6b656;gradientColor=#ffd966;" vertex="1" parent="prbzHfDhQ1h4LxpTt1DE-165">
          <mxGeometry width="32" height="18" as="geometry" />
        </mxCell>
        <mxCell id="prbzHfDhQ1h4LxpTt1DE-167" value="" style="endArrow=none;html=1;rounded=0;fontFamily=Comic Sans MS;fontSize=11;entryX=0.5;entryY=0;entryDx=0;entryDy=0;exitX=0.5;exitY=1;exitDx=0;exitDy=0;fillColor=#fff2cc;strokeColor=#d6b656;gradientColor=#ffd966;" edge="1" parent="prbzHfDhQ1h4LxpTt1DE-165" source="prbzHfDhQ1h4LxpTt1DE-166" target="prbzHfDhQ1h4LxpTt1DE-166">
          <mxGeometry width="50" height="50" relative="1" as="geometry">
            <mxPoint x="-40" y="81" as="sourcePoint" />
            <mxPoint y="36" as="targetPoint" />
          </mxGeometry>
        </mxCell>
        <mxCell id="prbzHfDhQ1h4LxpTt1DE-168" value="" style="group;fillColor=#d5e8d4;strokeColor=#82b366;" vertex="1" connectable="0" parent="1">
          <mxGeometry x="381" y="850" width="32" height="18" as="geometry" />
        </mxCell>
        <mxCell id="prbzHfDhQ1h4LxpTt1DE-169" value="" style="rounded=0;whiteSpace=wrap;html=1;fontFamily=Comic Sans MS;fontSize=11;fillColor=#fff2cc;strokeColor=#d6b656;gradientColor=#ffd966;" vertex="1" parent="prbzHfDhQ1h4LxpTt1DE-168">
          <mxGeometry width="32" height="18" as="geometry" />
        </mxCell>
        <mxCell id="prbzHfDhQ1h4LxpTt1DE-170" value="" style="endArrow=none;html=1;rounded=0;fontFamily=Comic Sans MS;fontSize=11;entryX=0.5;entryY=0;entryDx=0;entryDy=0;exitX=0.5;exitY=1;exitDx=0;exitDy=0;fillColor=#fff2cc;strokeColor=#d6b656;gradientColor=#ffd966;" edge="1" parent="prbzHfDhQ1h4LxpTt1DE-168" source="prbzHfDhQ1h4LxpTt1DE-169" target="prbzHfDhQ1h4LxpTt1DE-169">
          <mxGeometry width="50" height="50" relative="1" as="geometry">
            <mxPoint x="-40" y="81" as="sourcePoint" />
            <mxPoint y="36" as="targetPoint" />
          </mxGeometry>
        </mxCell>
        <mxCell id="prbzHfDhQ1h4LxpTt1DE-171" value="&lt;p style=&quot;line-height: 0%;&quot;&gt;&lt;font face=&quot;Comic Sans MS&quot;&gt;&lt;span style=&quot;font-size: 11px;&quot;&gt;...&lt;/span&gt;&lt;/font&gt;&lt;/p&gt;" style="text;strokeColor=none;align=center;fillColor=none;html=1;verticalAlign=middle;whiteSpace=wrap;rounded=0;dashed=1;" vertex="1" parent="1">
          <mxGeometry x="415" y="842" width="30" height="30" as="geometry" />
        </mxCell>
        <mxCell id="prbzHfDhQ1h4LxpTt1DE-172" value="+" style="text;strokeColor=none;align=center;fillColor=none;html=1;verticalAlign=middle;whiteSpace=wrap;rounded=0;fontSize=14;fontFamily=Lucida Console;" vertex="1" parent="1">
          <mxGeometry x="459" y="875" width="10" height="10" as="geometry" />
        </mxCell>
        <mxCell id="prbzHfDhQ1h4LxpTt1DE-173" value="+" style="text;strokeColor=none;align=center;fillColor=none;html=1;verticalAlign=middle;whiteSpace=wrap;rounded=0;fontSize=14;fontFamily=Lucida Console;" vertex="1" parent="1">
          <mxGeometry x="500" y="875" width="10" height="10" as="geometry" />
        </mxCell>
        <mxCell id="prbzHfDhQ1h4LxpTt1DE-174" value="+" style="text;strokeColor=none;align=center;fillColor=none;html=1;verticalAlign=middle;whiteSpace=wrap;rounded=0;fontSize=14;fontFamily=Lucida Console;" vertex="1" parent="1">
          <mxGeometry x="539" y="875" width="10" height="10" as="geometry" />
        </mxCell>
        <mxCell id="prbzHfDhQ1h4LxpTt1DE-175" value="" style="group;fillColor=#d5e8d4;strokeColor=#82b366;" vertex="1" connectable="0" parent="1">
          <mxGeometry x="446.5" y="850" width="32" height="18" as="geometry" />
        </mxCell>
        <mxCell id="prbzHfDhQ1h4LxpTt1DE-176" value="" style="rounded=0;whiteSpace=wrap;html=1;fontFamily=Comic Sans MS;fontSize=11;fillColor=#fff2cc;strokeColor=#d6b656;gradientColor=#ffd966;" vertex="1" parent="prbzHfDhQ1h4LxpTt1DE-175">
          <mxGeometry width="32" height="18" as="geometry" />
        </mxCell>
        <mxCell id="prbzHfDhQ1h4LxpTt1DE-177" value="" style="endArrow=none;html=1;rounded=0;fontFamily=Comic Sans MS;fontSize=11;entryX=0.5;entryY=0;entryDx=0;entryDy=0;exitX=0.5;exitY=1;exitDx=0;exitDy=0;fillColor=#fff2cc;strokeColor=#d6b656;gradientColor=#ffd966;" edge="1" parent="prbzHfDhQ1h4LxpTt1DE-175" source="prbzHfDhQ1h4LxpTt1DE-176" target="prbzHfDhQ1h4LxpTt1DE-176">
          <mxGeometry width="50" height="50" relative="1" as="geometry">
            <mxPoint x="-40" y="81" as="sourcePoint" />
            <mxPoint y="36" as="targetPoint" />
          </mxGeometry>
        </mxCell>
        <mxCell id="prbzHfDhQ1h4LxpTt1DE-178" value="" style="group;fillColor=#d5e8d4;strokeColor=#82b366;" vertex="1" connectable="0" parent="1">
          <mxGeometry x="487" y="850" width="32" height="18" as="geometry" />
        </mxCell>
        <mxCell id="prbzHfDhQ1h4LxpTt1DE-179" value="" style="rounded=0;whiteSpace=wrap;html=1;fontFamily=Comic Sans MS;fontSize=11;fillColor=#fff2cc;strokeColor=#d6b656;gradientColor=#ffd966;" vertex="1" parent="prbzHfDhQ1h4LxpTt1DE-178">
          <mxGeometry width="32" height="18" as="geometry" />
        </mxCell>
        <mxCell id="prbzHfDhQ1h4LxpTt1DE-180" value="" style="endArrow=none;html=1;rounded=0;fontFamily=Comic Sans MS;fontSize=11;entryX=0.5;entryY=0;entryDx=0;entryDy=0;exitX=0.5;exitY=1;exitDx=0;exitDy=0;fillColor=#fff2cc;strokeColor=#d6b656;gradientColor=#ffd966;" edge="1" parent="prbzHfDhQ1h4LxpTt1DE-178" source="prbzHfDhQ1h4LxpTt1DE-179" target="prbzHfDhQ1h4LxpTt1DE-179">
          <mxGeometry width="50" height="50" relative="1" as="geometry">
            <mxPoint x="-40" y="81" as="sourcePoint" />
            <mxPoint y="36" as="targetPoint" />
          </mxGeometry>
        </mxCell>
        <mxCell id="prbzHfDhQ1h4LxpTt1DE-181" value="" style="group;fillColor=#d5e8d4;strokeColor=#82b366;" vertex="1" connectable="0" parent="1">
          <mxGeometry x="526" y="850" width="32" height="18" as="geometry" />
        </mxCell>
        <mxCell id="prbzHfDhQ1h4LxpTt1DE-182" value="" style="rounded=0;whiteSpace=wrap;html=1;fontFamily=Comic Sans MS;fontSize=11;fillColor=#fff2cc;strokeColor=#d6b656;gradientColor=#ffd966;" vertex="1" parent="prbzHfDhQ1h4LxpTt1DE-181">
          <mxGeometry width="32" height="18" as="geometry" />
        </mxCell>
        <mxCell id="prbzHfDhQ1h4LxpTt1DE-183" value="" style="endArrow=none;html=1;rounded=0;fontFamily=Comic Sans MS;fontSize=11;entryX=0.5;entryY=0;entryDx=0;entryDy=0;exitX=0.5;exitY=1;exitDx=0;exitDy=0;fillColor=#fff2cc;strokeColor=#d6b656;gradientColor=#ffd966;" edge="1" parent="prbzHfDhQ1h4LxpTt1DE-181" source="prbzHfDhQ1h4LxpTt1DE-182" target="prbzHfDhQ1h4LxpTt1DE-182">
          <mxGeometry width="50" height="50" relative="1" as="geometry">
            <mxPoint x="-40" y="81" as="sourcePoint" />
            <mxPoint y="36" as="targetPoint" />
          </mxGeometry>
        </mxCell>
        <mxCell id="prbzHfDhQ1h4LxpTt1DE-184" value="+" style="text;strokeColor=none;align=center;fillColor=none;html=1;verticalAlign=middle;whiteSpace=wrap;rounded=0;fontSize=14;fontFamily=Lucida Console;" vertex="1" parent="1">
          <mxGeometry x="193" y="918" width="10" height="10" as="geometry" />
        </mxCell>
        <mxCell id="prbzHfDhQ1h4LxpTt1DE-185" value="+" style="text;strokeColor=none;align=center;fillColor=none;html=1;verticalAlign=middle;whiteSpace=wrap;rounded=0;fontSize=14;fontFamily=Lucida Console;" vertex="1" parent="1">
          <mxGeometry x="234" y="918" width="10" height="10" as="geometry" />
        </mxCell>
        <mxCell id="prbzHfDhQ1h4LxpTt1DE-186" value="+" style="text;strokeColor=none;align=center;fillColor=none;html=1;verticalAlign=middle;whiteSpace=wrap;rounded=0;fontSize=14;fontFamily=Lucida Console;" vertex="1" parent="1">
          <mxGeometry x="273" y="918" width="10" height="10" as="geometry" />
        </mxCell>
        <mxCell id="prbzHfDhQ1h4LxpTt1DE-187" value="+" style="text;strokeColor=none;align=center;fillColor=none;html=1;verticalAlign=middle;whiteSpace=wrap;rounded=0;fontSize=14;fontFamily=Lucida Console;" vertex="1" parent="1">
          <mxGeometry x="314" y="918" width="10" height="10" as="geometry" />
        </mxCell>
        <mxCell id="prbzHfDhQ1h4LxpTt1DE-188" value="+" style="text;strokeColor=none;align=center;fillColor=none;html=1;verticalAlign=middle;whiteSpace=wrap;rounded=0;fontSize=14;fontFamily=Lucida Console;" vertex="1" parent="1">
          <mxGeometry x="355" y="918" width="10" height="10" as="geometry" />
        </mxCell>
        <mxCell id="prbzHfDhQ1h4LxpTt1DE-189" value="+" style="text;strokeColor=none;align=center;fillColor=none;html=1;verticalAlign=middle;whiteSpace=wrap;rounded=0;fontSize=14;fontFamily=Lucida Console;" vertex="1" parent="1">
          <mxGeometry x="394" y="918" width="10" height="10" as="geometry" />
        </mxCell>
        <mxCell id="prbzHfDhQ1h4LxpTt1DE-190" value="+" style="text;strokeColor=none;align=center;fillColor=none;html=1;verticalAlign=middle;whiteSpace=wrap;rounded=0;fontSize=14;fontFamily=Lucida Console;" vertex="1" parent="1">
          <mxGeometry x="459" y="918" width="10" height="10" as="geometry" />
        </mxCell>
        <mxCell id="prbzHfDhQ1h4LxpTt1DE-191" value="+" style="text;strokeColor=none;align=center;fillColor=none;html=1;verticalAlign=middle;whiteSpace=wrap;rounded=0;fontSize=14;fontFamily=Lucida Console;" vertex="1" parent="1">
          <mxGeometry x="500" y="918" width="10" height="10" as="geometry" />
        </mxCell>
        <mxCell id="prbzHfDhQ1h4LxpTt1DE-192" value="+" style="text;strokeColor=none;align=center;fillColor=none;html=1;verticalAlign=middle;whiteSpace=wrap;rounded=0;fontSize=14;fontFamily=Lucida Console;" vertex="1" parent="1">
          <mxGeometry x="539" y="918" width="10" height="10" as="geometry" />
        </mxCell>
        <mxCell id="prbzHfDhQ1h4LxpTt1DE-197" value="&lt;font style=&quot;font-size: 12px;&quot;&gt;&amp;lt;w1&amp;gt;&lt;/font&gt;" style="rounded=0;whiteSpace=wrap;html=1;fontFamily=Lucida Console;fontSize=14;fillColor=#f9f7ed;strokeColor=#36393d;" vertex="1" parent="1">
          <mxGeometry x="181" y="934" width="110" height="18" as="geometry" />
        </mxCell>
        <mxCell id="prbzHfDhQ1h4LxpTt1DE-200" value="" style="group;fillColor=#d5e8d4;strokeColor=#82b366;" vertex="1" connectable="0" parent="1">
          <mxGeometry x="181" y="850" width="32" height="18" as="geometry" />
        </mxCell>
        <mxCell id="prbzHfDhQ1h4LxpTt1DE-201" value="" style="rounded=0;whiteSpace=wrap;html=1;fontFamily=Comic Sans MS;fontSize=11;fillColor=#fff2cc;strokeColor=#d6b656;gradientColor=#ffd966;" vertex="1" parent="prbzHfDhQ1h4LxpTt1DE-200">
          <mxGeometry width="32" height="18" as="geometry" />
        </mxCell>
        <mxCell id="prbzHfDhQ1h4LxpTt1DE-202" value="" style="endArrow=none;html=1;rounded=0;fontFamily=Comic Sans MS;fontSize=11;entryX=0.5;entryY=0;entryDx=0;entryDy=0;exitX=0.5;exitY=1;exitDx=0;exitDy=0;fillColor=#fff2cc;strokeColor=#d6b656;gradientColor=#ffd966;" edge="1" parent="prbzHfDhQ1h4LxpTt1DE-200" source="prbzHfDhQ1h4LxpTt1DE-201" target="prbzHfDhQ1h4LxpTt1DE-201">
          <mxGeometry width="50" height="50" relative="1" as="geometry">
            <mxPoint x="-40" y="81" as="sourcePoint" />
            <mxPoint y="36" as="targetPoint" />
          </mxGeometry>
        </mxCell>
        <mxCell id="prbzHfDhQ1h4LxpTt1DE-205" value="&lt;font style=&quot;font-size: 12px;&quot;&gt;&amp;lt;w2&amp;gt;&lt;/font&gt;" style="rounded=0;whiteSpace=wrap;html=1;fontFamily=Lucida Console;fontSize=14;fillColor=#f9f7ed;strokeColor=#36393d;" vertex="1" parent="1">
          <mxGeometry x="301.5" y="934" width="110" height="18" as="geometry" />
        </mxCell>
        <mxCell id="prbzHfDhQ1h4LxpTt1DE-206" value="" style="rounded=0;whiteSpace=wrap;html=1;fontFamily=Lucida Console;fontSize=14;fillColor=#f9f7ed;strokeColor=#36393d;" vertex="1" parent="1">
          <mxGeometry x="446.5" y="934" width="110" height="18" as="geometry" />
        </mxCell>
        <mxCell id="prbzHfDhQ1h4LxpTt1DE-207" value="&lt;p style=&quot;line-height: 0%;&quot;&gt;&lt;font face=&quot;Comic Sans MS&quot;&gt;&lt;span style=&quot;font-size: 11px;&quot;&gt;...&lt;/span&gt;&lt;/font&gt;&lt;/p&gt;" style="text;strokeColor=none;align=center;fillColor=none;html=1;verticalAlign=middle;whiteSpace=wrap;rounded=0;dashed=1;" vertex="1" parent="1">
          <mxGeometry x="416" y="923" width="30" height="30" as="geometry" />
        </mxCell>
        <mxCell id="prbzHfDhQ1h4LxpTt1DE-210" value="" style="rounded=1;whiteSpace=wrap;html=1;dashed=1;direction=south;container=0;" vertex="1" parent="1">
          <mxGeometry x="301" y="969" width="110" height="34" as="geometry" />
        </mxCell>
        <mxCell id="prbzHfDhQ1h4LxpTt1DE-211" value="" style="ellipse;whiteSpace=wrap;html=1;aspect=fixed;fillColor=#ffe6cc;strokeColor=#d79b00;container=0;" vertex="1" parent="1">
          <mxGeometry x="309" y="975.5" width="20" height="20" as="geometry" />
        </mxCell>
        <mxCell id="prbzHfDhQ1h4LxpTt1DE-212" value="" style="triangle;whiteSpace=wrap;html=1;fontFamily=Comic Sans MS;fontSize=14;direction=north;fillColor=#fff2cc;strokeColor=#d6b656;container=0;" vertex="1" parent="1">
          <mxGeometry x="346.5" y="974.5" width="20" height="20" as="geometry" />
        </mxCell>
        <mxCell id="prbzHfDhQ1h4LxpTt1DE-213" value="" style="rhombus;whiteSpace=wrap;html=1;fontFamily=Comic Sans MS;fontSize=14;fillColor=#f8cecc;strokeColor=#b85450;container=0;" vertex="1" parent="1">
          <mxGeometry x="385" y="974.5" width="20" height="20" as="geometry" />
        </mxCell>
        <mxCell id="prbzHfDhQ1h4LxpTt1DE-214" value="" style="rounded=1;whiteSpace=wrap;html=1;dashed=1;direction=south;container=0;" vertex="1" parent="1">
          <mxGeometry x="446" y="968.5" width="110" height="34" as="geometry" />
        </mxCell>
        <mxCell id="prbzHfDhQ1h4LxpTt1DE-215" value="" style="ellipse;whiteSpace=wrap;html=1;aspect=fixed;fillColor=#ffe6cc;strokeColor=#d79b00;container=0;" vertex="1" parent="1">
          <mxGeometry x="454" y="975" width="20" height="20" as="geometry" />
        </mxCell>
        <mxCell id="prbzHfDhQ1h4LxpTt1DE-216" value="" style="triangle;whiteSpace=wrap;html=1;fontFamily=Comic Sans MS;fontSize=14;direction=north;fillColor=#fff2cc;strokeColor=#d6b656;container=0;" vertex="1" parent="1">
          <mxGeometry x="491.5" y="974" width="20" height="20" as="geometry" />
        </mxCell>
        <mxCell id="prbzHfDhQ1h4LxpTt1DE-217" value="" style="rhombus;whiteSpace=wrap;html=1;fontFamily=Comic Sans MS;fontSize=14;fillColor=#f8cecc;strokeColor=#b85450;container=0;" vertex="1" parent="1">
          <mxGeometry x="530" y="974" width="20" height="20" as="geometry" />
        </mxCell>
        <mxCell id="prbzHfDhQ1h4LxpTt1DE-218" value="" style="endArrow=classic;html=1;rounded=0;fontFamily=Comic Sans MS;fontSize=11;" edge="1" parent="1">
          <mxGeometry width="50" height="50" relative="1" as="geometry">
            <mxPoint x="197.5" y="848" as="sourcePoint" />
            <mxPoint x="197.5" y="825" as="targetPoint" />
            <Array as="points" />
          </mxGeometry>
        </mxCell>
        <mxCell id="prbzHfDhQ1h4LxpTt1DE-219" value="" style="endArrow=classic;html=1;rounded=0;fontFamily=Comic Sans MS;fontSize=11;" edge="1" parent="1">
          <mxGeometry width="50" height="50" relative="1" as="geometry">
            <mxPoint x="237" y="667" as="sourcePoint" />
            <mxPoint x="237" y="687" as="targetPoint" />
            <Array as="points" />
          </mxGeometry>
        </mxCell>
        <mxCell id="prbzHfDhQ1h4LxpTt1DE-220" value="" style="endArrow=classic;html=1;rounded=0;fontFamily=Comic Sans MS;fontSize=11;" edge="1" parent="1">
          <mxGeometry width="50" height="50" relative="1" as="geometry">
            <mxPoint x="358" y="667" as="sourcePoint" />
            <mxPoint x="358" y="687" as="targetPoint" />
            <Array as="points" />
          </mxGeometry>
        </mxCell>
        <mxCell id="prbzHfDhQ1h4LxpTt1DE-221" value="" style="endArrow=classic;html=1;rounded=0;fontFamily=Comic Sans MS;fontSize=11;" edge="1" parent="1">
          <mxGeometry width="50" height="50" relative="1" as="geometry">
            <mxPoint x="237.5" y="848" as="sourcePoint" />
            <mxPoint x="237.5" y="825" as="targetPoint" />
            <Array as="points" />
          </mxGeometry>
        </mxCell>
        <mxCell id="prbzHfDhQ1h4LxpTt1DE-222" value="" style="endArrow=classic;html=1;rounded=0;fontFamily=Comic Sans MS;fontSize=11;" edge="1" parent="1">
          <mxGeometry width="50" height="50" relative="1" as="geometry">
            <mxPoint x="275.5" y="848" as="sourcePoint" />
            <mxPoint x="275.5" y="825" as="targetPoint" />
            <Array as="points" />
          </mxGeometry>
        </mxCell>
        <mxCell id="prbzHfDhQ1h4LxpTt1DE-225" value="" style="endArrow=classic;html=1;rounded=0;fontFamily=Comic Sans MS;fontSize=11;" edge="1" parent="1">
          <mxGeometry width="50" height="50" relative="1" as="geometry">
            <mxPoint x="318.5" y="848" as="sourcePoint" />
            <mxPoint x="318.5" y="825" as="targetPoint" />
            <Array as="points" />
          </mxGeometry>
        </mxCell>
        <mxCell id="prbzHfDhQ1h4LxpTt1DE-226" value="" style="endArrow=classic;html=1;rounded=0;fontFamily=Comic Sans MS;fontSize=11;" edge="1" parent="1">
          <mxGeometry width="50" height="50" relative="1" as="geometry">
            <mxPoint x="358.5" y="848" as="sourcePoint" />
            <mxPoint x="358.5" y="825" as="targetPoint" />
            <Array as="points" />
          </mxGeometry>
        </mxCell>
        <mxCell id="prbzHfDhQ1h4LxpTt1DE-227" value="" style="endArrow=classic;html=1;rounded=0;fontFamily=Comic Sans MS;fontSize=11;" edge="1" parent="1">
          <mxGeometry width="50" height="50" relative="1" as="geometry">
            <mxPoint x="396.5" y="848" as="sourcePoint" />
            <mxPoint x="396.5" y="825" as="targetPoint" />
            <Array as="points" />
          </mxGeometry>
        </mxCell>
        <mxCell id="prbzHfDhQ1h4LxpTt1DE-228" value="" style="endArrow=classic;html=1;rounded=0;fontFamily=Comic Sans MS;fontSize=11;" edge="1" parent="1">
          <mxGeometry width="50" height="50" relative="1" as="geometry">
            <mxPoint x="462.5" y="848" as="sourcePoint" />
            <mxPoint x="462.5" y="825" as="targetPoint" />
            <Array as="points" />
          </mxGeometry>
        </mxCell>
        <mxCell id="prbzHfDhQ1h4LxpTt1DE-229" value="" style="endArrow=classic;html=1;rounded=0;fontFamily=Comic Sans MS;fontSize=11;" edge="1" parent="1">
          <mxGeometry width="50" height="50" relative="1" as="geometry">
            <mxPoint x="502.5" y="848" as="sourcePoint" />
            <mxPoint x="502.5" y="825" as="targetPoint" />
            <Array as="points" />
          </mxGeometry>
        </mxCell>
        <mxCell id="prbzHfDhQ1h4LxpTt1DE-230" value="" style="endArrow=classic;html=1;rounded=0;fontFamily=Comic Sans MS;fontSize=11;" edge="1" parent="1">
          <mxGeometry width="50" height="50" relative="1" as="geometry">
            <mxPoint x="540.5" y="848" as="sourcePoint" />
            <mxPoint x="540.5" y="825" as="targetPoint" />
            <Array as="points" />
          </mxGeometry>
        </mxCell>
        <mxCell id="prbzHfDhQ1h4LxpTt1DE-231" value="&lt;font face=&quot;Lucida Console&quot; style=&quot;font-size: 14px;&quot;&gt;Basket-level Encoder&lt;/font&gt;" style="rounded=0;whiteSpace=wrap;html=1;fillColor=#dae8fc;strokeColor=#6c8ebf;" vertex="1" parent="1">
          <mxGeometry x="181" y="690" width="375" height="44" as="geometry" />
        </mxCell>
        <mxCell id="prbzHfDhQ1h4LxpTt1DE-234" value="" style="endArrow=classic;html=1;rounded=0;fontFamily=Comic Sans MS;fontSize=11;" edge="1" parent="1">
          <mxGeometry width="50" height="50" relative="1" as="geometry">
            <mxPoint x="500" y="666" as="sourcePoint" />
            <mxPoint x="500" y="686" as="targetPoint" />
            <Array as="points" />
          </mxGeometry>
        </mxCell>
        <mxCell id="prbzHfDhQ1h4LxpTt1DE-237" value="" style="group;fillColor=#f5f5f5;strokeColor=#666666;fontColor=#333333;" vertex="1" connectable="0" parent="1">
          <mxGeometry x="477" y="638" width="48" height="25" as="geometry" />
        </mxCell>
        <mxCell id="prbzHfDhQ1h4LxpTt1DE-238" value="" style="rounded=0;whiteSpace=wrap;html=1;fontFamily=Comic Sans MS;fontSize=11;fillColor=#f5f5f5;strokeColor=#666666;fontColor=#333333;" vertex="1" parent="prbzHfDhQ1h4LxpTt1DE-237">
          <mxGeometry width="48" height="25" as="geometry" />
        </mxCell>
        <mxCell id="prbzHfDhQ1h4LxpTt1DE-239" value="" style="endArrow=none;html=1;rounded=0;fontFamily=Comic Sans MS;fontSize=11;entryX=0.5;entryY=0;entryDx=0;entryDy=0;exitX=0.5;exitY=1;exitDx=0;exitDy=0;fillColor=#f5f5f5;strokeColor=#666666;" edge="1" parent="prbzHfDhQ1h4LxpTt1DE-237" source="prbzHfDhQ1h4LxpTt1DE-238" target="prbzHfDhQ1h4LxpTt1DE-238">
          <mxGeometry width="50" height="50" relative="1" as="geometry">
            <mxPoint x="-60" y="112.5" as="sourcePoint" />
            <mxPoint y="50" as="targetPoint" />
          </mxGeometry>
        </mxCell>
        <mxCell id="prbzHfDhQ1h4LxpTt1DE-240" value="" style="group;fillColor=#f5f5f5;strokeColor=#666666;fontColor=#333333;" vertex="1" connectable="0" parent="1">
          <mxGeometry x="334" y="639" width="48" height="25" as="geometry" />
        </mxCell>
        <mxCell id="prbzHfDhQ1h4LxpTt1DE-241" value="" style="rounded=0;whiteSpace=wrap;html=1;fontFamily=Comic Sans MS;fontSize=11;fillColor=#f5f5f5;strokeColor=#666666;fontColor=#333333;" vertex="1" parent="prbzHfDhQ1h4LxpTt1DE-240">
          <mxGeometry width="48" height="25" as="geometry" />
        </mxCell>
        <mxCell id="prbzHfDhQ1h4LxpTt1DE-242" value="" style="endArrow=none;html=1;rounded=0;fontFamily=Comic Sans MS;fontSize=11;entryX=0.5;entryY=0;entryDx=0;entryDy=0;exitX=0.5;exitY=1;exitDx=0;exitDy=0;fillColor=#f5f5f5;strokeColor=#666666;" edge="1" parent="prbzHfDhQ1h4LxpTt1DE-240" source="prbzHfDhQ1h4LxpTt1DE-241" target="prbzHfDhQ1h4LxpTt1DE-241">
          <mxGeometry width="50" height="50" relative="1" as="geometry">
            <mxPoint x="-60" y="112.5" as="sourcePoint" />
            <mxPoint y="50" as="targetPoint" />
          </mxGeometry>
        </mxCell>
        <mxCell id="prbzHfDhQ1h4LxpTt1DE-246" value="" style="endArrow=none;dashed=1;html=1;rounded=0;fontFamily=Lucida Console;fontSize=12;" edge="1" parent="1">
          <mxGeometry width="50" height="50" relative="1" as="geometry">
            <mxPoint x="10" y="626" as="sourcePoint" />
            <mxPoint x="610" y="626" as="targetPoint" />
          </mxGeometry>
        </mxCell>
        <mxCell id="prbzHfDhQ1h4LxpTt1DE-247" value="" style="group;fillColor=#f5f5f5;strokeColor=#666666;fontColor=#333333;" vertex="1" connectable="0" parent="1">
          <mxGeometry x="213" y="639" width="48" height="25" as="geometry" />
        </mxCell>
        <mxCell id="prbzHfDhQ1h4LxpTt1DE-248" value="" style="rounded=0;whiteSpace=wrap;html=1;fontFamily=Comic Sans MS;fontSize=11;fillColor=#f5f5f5;strokeColor=#666666;fontColor=#333333;" vertex="1" parent="prbzHfDhQ1h4LxpTt1DE-247">
          <mxGeometry width="48" height="25" as="geometry" />
        </mxCell>
        <mxCell id="prbzHfDhQ1h4LxpTt1DE-249" value="" style="endArrow=none;html=1;rounded=0;fontFamily=Comic Sans MS;fontSize=11;entryX=0.5;entryY=0;entryDx=0;entryDy=0;exitX=0.5;exitY=1;exitDx=0;exitDy=0;fillColor=#f5f5f5;strokeColor=#666666;" edge="1" parent="prbzHfDhQ1h4LxpTt1DE-247" source="prbzHfDhQ1h4LxpTt1DE-248" target="prbzHfDhQ1h4LxpTt1DE-248">
          <mxGeometry width="50" height="50" relative="1" as="geometry">
            <mxPoint x="-60" y="112.5" as="sourcePoint" />
            <mxPoint y="50" as="targetPoint" />
          </mxGeometry>
        </mxCell>
      </root>
    </mxGraphModel>
  </diagram>
</mxfile>
